<svg width="28" height="28" fill="none" xmlns="http://www.w3.org/2000/svg"><path d="M26.25 3.627c1.139-1.138 1.707-1.707 1.746-2.195a1.328 1.328 0 00-.461-1.114C27.162 0 26.357 0 24.748 0H2.125c-.744 0-1.116 0-1.4.145-.25.127-.453.33-.58.58C0 1.009 0 1.381 0 2.125v2.39c0 .743 0 1.115.145 1.4.127.25.33.452.58.58.284.144.656.144 1.4.144h20.233c.325 0 .488 0 .64-.036.136-.033.265-.086.384-.16.134-.081.249-.196.479-.426l2.39-2.39zM3.627 26.25c-1.138 1.139-1.707 1.707-2.195 1.746a1.328 1.328 0 01-1.114-.461C0 27.162 0 26.358 0 24.748V12.084c0-.743 0-1.115.145-1.4.127-.25.33-.452.58-.58.284-.144.656-.144 1.4-.144h2.39c.744 0 1.115 0 1.4.144.25.128.452.33.58.58.145.285.145.657.145 1.4v10.274c0 .325 0 .488-.037.64a1.326 1.326 0 01-.16.384c-.081.134-.196.249-.426.479l-2.39 2.39zM9.96 14.79c0 1.608 0 2.413.317 2.785.276.323.69.495 1.114.462.489-.039 1.057-.607 2.195-1.745l2.705-2.705c1.138-1.138 1.707-1.707 1.745-2.195a1.328 1.328 0 00-.461-1.114c-.372-.318-1.177-.318-2.786-.318h-2.705c-.744 0-1.116 0-1.4.144-.25.128-.453.33-.58.58-.145.285-.145.657-.145 1.4v2.706z" fill="#132339"/></svg>