<svg width="28" height="28" viewBox="0 0 28 28" fill="none" xmlns="http://www.w3.org/2000/svg">
<path d="M26.2509 3.62694C27.3885 2.48926 27.9574 1.92043 27.9959 1.43207C28.0293 1.00831 27.8576 0.59421 27.5345 0.31816C27.162 -7.91479e-08 26.3574 0 24.7485 0H2.12465C1.38096 0 1.00911 8.90413e-08 0.725053 0.144722C0.475191 0.272033 0.272038 0.475182 0.144725 0.725039C8.9043e-08 1.00909 0 1.38093 0 2.12461V4.51479C0 5.25847 8.9043e-08 5.63031 0.144725 5.91436C0.272038 6.16422 0.475191 6.36737 0.725053 6.49468C1.00911 6.6394 1.38096 6.6394 2.12465 6.6394H22.3583C22.6831 6.6394 22.8455 6.6394 22.9983 6.60272C23.1338 6.57019 23.2634 6.51654 23.3821 6.44372C23.5162 6.36161 23.6309 6.24678 23.8606 6.01713L26.2509 3.62694Z" fill="#132339"/>
<path d="M3.62701 26.2509C2.48931 27.3886 1.92047 27.9574 1.4321 27.9959C1.00833 28.0293 0.594221 27.8576 0.318166 27.5345C-7.91493e-08 27.162 0 26.3575 0 24.7486V12.0843C0 11.3406 8.9043e-08 10.9688 0.144725 10.6848C0.272038 10.4349 0.475191 10.2317 0.725053 10.1044C1.00911 9.95972 1.38096 9.95972 2.12465 9.95972H4.51488C5.25857 9.95972 5.63042 9.95972 5.91447 10.1044C6.16434 10.2317 6.36749 10.4349 6.4948 10.6848C6.63953 10.9688 6.63953 11.3406 6.63953 12.0843V22.3584C6.63953 22.6832 6.63953 22.8456 6.60284 22.9984C6.57031 23.1339 6.51666 23.2635 6.44384 23.3822C6.36173 23.5163 6.2469 23.631 6.01724 23.8607L3.62701 26.2509Z" fill="#132339"/>
<path d="M9.95923 14.7895C9.95923 16.3984 9.95923 17.2029 10.2774 17.5754C10.5534 17.8985 10.9675 18.0702 11.3913 18.0368C11.8797 17.9983 12.4485 17.4295 13.5862 16.2918L16.2914 13.5866C17.4291 12.449 17.9979 11.8801 18.0365 11.3918C18.0698 10.968 17.8982 10.5539 17.575 10.2779C17.2025 9.95972 16.398 9.95972 14.7891 9.95972H12.0839C11.3402 9.95972 10.9683 9.95972 10.6843 10.1044C10.4344 10.2317 10.2313 10.4349 10.104 10.6847C9.95923 10.9688 9.95923 11.3406 9.95923 12.0843V14.7895Z" fill="#132339"/>
</svg>
